<svg version="1.1" id="Capa_1" xmlns="http://www.w3.org/2000/svg" x="0" y="0" width="1980" height="1980" xml:space="preserve"><style>.st0{fill:#80bee5}</style><path class="st0" d="M976.7 1613.7c.2.8 3.3-2.5 7.9-7.6-5.6 3.3-8.5 5.3-8.5 5.3l.6 2.3z"/><path class="st0" d="M1022.1 1573.4c-2.7-7.7-25.3 19-37.6 32.8 3.9-2.3 9.1-5.3 15.6-8.7 11.8-9.9 23.4-20.3 22-24.1z"/><linearGradient id="SVGID_1_" gradientUnits="userSpaceOnUse" x1="771.256" y1="1690.374" x2="1275.964" y2="1690.374" gradientTransform="rotate(-18.066 883.087 969.815)"><stop offset="0" stop-color="#6a007c"/><stop offset="1" stop-color="#a9004a"/></linearGradient><path d="M1434.3 1637.1c17.7-20.7 34.6-42.1 51.7-63.4 7.6-9.5 1.8-23.6-10.3-25-74.5-8.6-179.6-15.7-266.5-9.1-100.1 7.7-173.5 39.1-209.1 57.7-11.5 9.7-23.1 18.9-22.7 20.9 7.5 35.2 25.8 15.9 27.6 16 4.3.1-2.7 21.1 2 21.2 96.4 1.4 277.8 2 386.6 2 14.8 0 28.9-6.5 38.5-17.7.7-.8 1.5-1.7 2.2-2.6z" fill="url(#SVGID_1_)"/><linearGradient id="SVGID_2_" gradientUnits="userSpaceOnUse" x1="771.256" y1="1690.374" x2="1275.964" y2="1690.374" gradientTransform="rotate(-18.066 883.087 969.815)"><stop offset="0" stop-color="#6a007c"/><stop offset="1" stop-color="#a9004a"/></linearGradient><path d="M1434.3 1637.1c17.7-20.7 34.6-42.1 51.7-63.4 7.6-9.5 1.8-23.6-10.3-25-74.5-8.6-179.6-15.7-266.5-9.1-100.1 7.7-173.5 39.1-209.1 57.7-11.5 9.7-23.1 18.9-22.7 20.9 7.5 35.2 25.8 15.9 27.6 16 4.3.1-2.7 21.1 2 21.2 96.4 1.4 277.8 2 386.6 2 14.8 0 28.9-6.5 38.5-17.7.7-.8 1.5-1.7 2.2-2.6z" fill="url(#SVGID_2_)"/><linearGradient id="SVGID_3_" gradientUnits="userSpaceOnUse" x1="755.833" y1="1473.065" x2="1352.736" y2="1473.065" gradientTransform="rotate(-18.066 883.087 969.815)"><stop offset="0" stop-color="#6a007c"/><stop offset="1" stop-color="#a9004a"/></linearGradient><path d="M1467.7 1365.8s36.6-45.7 16.9-56.8c-9.6-6.1-215.1-5.5-361.3 27.7-141.2 32-220.2 104.9-220.2 104.9l1 2.2c1.2 2.8 3.4-.7 8.7 9.2 3.8 7.2 9.8 21 12.4 24.2 1.8 2.2 5.8 5.3 7.5 5 136.4-17.8 481.9-69.7 481.9-69.7l53.1-46.7z" fill="url(#SVGID_3_)"/><linearGradient id="SVGID_4_" gradientUnits="userSpaceOnUse" x1="755.833" y1="1473.065" x2="1352.736" y2="1473.065" gradientTransform="rotate(-18.066 883.087 969.815)"><stop offset="0" stop-color="#6a007c"/><stop offset="1" stop-color="#a9004a"/></linearGradient><path d="M1467.7 1365.8s36.6-45.7 16.9-56.8c-9.6-6.1-215.1-5.5-361.3 27.7-141.2 32-220.2 104.9-220.2 104.9l1 2.2c1.2 2.8 3.4-.7 8.7 9.2 3.8 7.2 9.8 21 12.4 24.2 1.8 2.2 5.8 5.3 7.5 5 136.4-17.8 481.9-69.7 481.9-69.7l53.1-46.7z" fill="url(#SVGID_4_)"/><path d="M1467.2 849c3.6 58.8-44.6 255.2-120.2 364.6-10.3 8.2-20.7 16.2-31.3 23.9 0 .1 0 .1-.1.1-6.2 4.5-12.4 9-18.6 13.4 0 0-.1 0-.1.1-9.8 6.8-19.6 13.4-29.5 19.9-2.8 1.9-5.7 3.7-8.5 5.6-.2.1-.4.3-.7.4-1.5 1-2.9 1.9-4.5 2.8-32 20.3-64.1 38.6-95.4 55-14.9 7.8-29.6 15.2-43.9 22.2h-.1l-14.4 6.9-.2.1c0 .1-.1.1-.2.1-2.9 1.4-5.7 2.7-8.5 4-.3.1-.5.2-.8.4h-.1c-2.8 1.3-5.6 2.6-8.3 3.8l-.6.3c-3 1.3-5.8 2.7-8.8 4h-.1c-4.5 2-8.9 4-13.2 5.9-.1 0-.2.1-.3.1-13.1 5.7-25.6 11-37.5 15.9l-.3.1c-24.1 9.9-45.5 18-63.3 24.5l-.1.1c-60.1 24.4-31.3 57.6-24.8 58.8-13.2.6-28.9-37.8-32.7-47.5v-.1c-.6-1.4-1.3-2.9-2.1-4.8 0-.1-.1-.2-.1-.3l-.2-.5c-.2-.4-.4-.8-.6-1.3-.1-.2-.2-.5-.3-.7-.1-.2-.2-.3-.2-.5v-.1c-.8-1.9-1.7-4.1-2.7-6.5-.1-.2-.2-.5-.3-.7-.1-.2-.1-.4-.3-.6-.4-1.2-.9-2.4-1.5-3.6v-.1c-.1-.3-.3-.6-.4-.9-.1-.3-.3-.6-.4-.9-.6-1.5-1.2-2.9-1.8-4.5 0-.1-.1-.1-.1-.2-.1-.2-.2-.5-.3-.8-.6-1.5-1.3-3.1-1.9-4.7-.1-.3-.2-.5-.3-.7l-.1-.3c-.4-1-.9-2.2-1.3-3.2-.2-.4-.4-.8-.5-1.2-.2-.4-.3-.7-.5-1.1 0-.1-.1-.3-.2-.4-1.7-4.1-3.5-8.6-5.5-13.5-.3-.7-.6-1.4-.8-2.1-.1-.2-.2-.5-.3-.8-.9-2.2-1.8-4.5-2.8-6.9 0-.1-.1-.3-.2-.4v-.1c-1.2-2.9-2.4-6-3.7-9.2l-.3-.6c-.1-.3-.3-.7-.4-.9-2.1-5.2-4.4-10.7-6.8-16.6-.2-.3-.3-.7-.4-1-.2-.5-.4-.9-.6-1.4-1.3-3.2-2.6-6.5-4-9.8-.4-.8-.7-1.5-1-2.3-.3-.9-.5-1.7-.7-2.5v-.7c0-.6-.1-1.2 0-1.9 0-.2.1-.4.1-.7.1-.6.3-1.3.6-1.9.1-.2.1-.3.1-.5.5-1.1 1.2-2.1 2-3.1l.6-.6c.2-.2.5-.4.8-.7.3-.2.6-.4 1-.6.2-.2.4-.3.7-.4.6-.3 1.3-.6 1.9-.8h.1c7.4-2.1 14.8-4.4 22.3-6.7 2.1-.7 4.2-1.3 6.3-2 5.7-1.8 11.5-3.7 17.3-5.6 1.9-.7 3.7-1.3 5.6-1.9 7.4-2.5 14.8-5 22.2-7.7 1.3-.5 2.7-1 4-1.5 6.2-2.2 12.3-4.5 18.5-6.9 2.2-.8 4.3-1.6 6.5-2.5 6.2-2.4 12.3-4.8 18.5-7.3 1.3-.5 2.6-1.1 4-1.6 7.3-3 14.7-6.1 22-9.3 1.8-.8 3.7-1.6 5.5-2.4 5.7-2.5 11.4-5 17.1-7.6 2.1-.9 4.2-1.9 6.3-2.8 7.3-3.4 14.6-6.8 21.8-10.4 9.8-4.8 19.5-9.7 29.2-14.9 7.8-4 15.5-8.2 23.1-12.4 2.3-1.3 4.5-2.6 6.8-3.9 6.6-3.7 13.1-7.5 19.6-11.3 19.5-11.5 38.6-23.6 57.3-36.4 2.7-1.8 5.3-3.8 8-5.7 2.7-1.9 5.4-3.7 8.1-5.6 6.1-4.3 12-8.7 17.9-13.2 1.8-1.4 3.7-2.8 5.5-4.2 4.2-3.1 8.3-6.3 12.4-9.6 2-1.6 4.1-3.2 6.1-4.8 4.1-3.2 8-6.6 12-9.8l5.4-4.5c5.6-4.8 11.2-9.6 16.7-14.4l2.4-2.1c4.1-3.7 8.1-7.3 12.1-11.1 6.3-5.8 12.4-11.8 18.5-17.9l4.5-4.5c12.1-12.2 23.6-24.8 34.7-37.6 1.4-1.6 2.7-3.2 4.1-4.9 1.6-1.9 3.2-3.8 4.7-5.7 3.9-4.6 7.6-9.3 11.4-14 .2-.2.3-.4.4-.5.3-.4.6-.9 1-1.3 0-.1 0-.1.1-.1 3.5-4.6 6.9-9.2 10.3-13.9 1.6-2.2 3.2-4.4 4.7-6.6 3.4-4.9 6.8-9.8 10-14.8l3-4.8c2.8-4.5 5.6-9 8.3-13.5.9-1.6 1.8-3.1 2.7-4.7.8-1.4 8.7-16.3 11.6-21.7.5-1 .9-1.6 1-1.9.6 5.5 30.9-64.9 31.3-58.3zm26.9 472.2c-4.9-16.7-21-13.9-21-13.9 38 5.3-18.3 33.2-18.3 33.2l-.5.5c-80 39.6-271 129.5-469.7 189.1-20.3 6.1-33.4 22.2-28.4 35 13.7 34.8 22.6 58.4 28.1 73.7 1.2 3.4 3.2 6.4 5.5 8.9 8.1 10 18.2 8.4 52.3 8.2-15.1.3-6.6-7.7.6-11.4 101.6-36.8 331.5-122.2 448-182.6 19.1-9.9 29.8-26.1 26.6-39.9l-23.2-100.9v.1z" fill="#a30084"/><linearGradient id="SVGID_5_" gradientUnits="userSpaceOnUse" x1="1284.304" y1="1269.846" x2="1525.105" y2="791.849" gradientTransform="rotate(-18.066 883.087 969.815)"><stop offset="0" stop-color="#9600aa"/><stop offset="1" stop-color="#9600aa"/></linearGradient><path d="M1615.8 553.8c6.4 33 10.3 65.9 11.5 98.7 0 .6.1 1.2.1 1.8 2.3 63.3-4.9 125.9-20.6 185.8-10.2 38.9-24 76.6-41.1 112.8-.8 1.6-1.5 3.1-2.3 4.7-2.9 6.2-6 12.4-9.2 18.5-19.5 37.2-42.6 72.5-69 105.3-28.8 35.9-61.5 68.7-97.8 97.9v.1c-3.7 3.4-7.7 6.8-11.5 10.1-1.9 1.6-3.7 3.2-5.6 4.8-5.7 4.9-11.4 9.8-17.2 14.5-2 1.6-4 3.3-6.1 4.9 1.2-1.8 2.5-3.6 3.7-5.5 73.9-112.2 82.8-285.9 83.9-298 .1-.4.1-.7.1-.7l1.1-2.1c2.8-5.5 5.5-11.1 8.1-16.7.1-.2.2-.4.3-.7 3.1-6.8 6.1-13.6 8.9-20.5.3-.6.5-1.3.7-1.9 2.7-6.6 5.2-13.2 7.6-19.9l1.2-3.6c1.5-4.4 3-8.9 4.4-13.4.5-1.7 1.1-3.4 1.7-5.1.6-1.9 1.1-3.8 1.6-5.7.3-1.2.7-2.5 1-3.7 1.3-4.3 2.5-8.7 3.6-13 .6-2.3 1.1-4.6 1.6-6.9 1.2-5.2 2.5-10.5 3.6-15.8.5-2.5.9-5 1.4-7.5.4-2 .7-4 1.1-5.9.6-3.2 1.2-6.3 1.7-9.5.4-2.4.7-4.8 1-7.2.8-5.3 1.6-10.5 2.2-15.8.3-2.7.5-5.3.7-8 .5-5 1-10.1 1.4-15.1.2-2.6.2-5.1.3-7.7.1-1.4.2-2.8.2-4.1.2-3.8.4-7.7.5-11.5.1-2.4 0-4.7 0-7.1.1-4.6.1-9.1 0-13.6 0-.9.1-1.8 0-2.6 0-2.1-.2-4.2-.3-6.3-.1-4.5-.4-9-.6-13.5-.1-1.2-.1-2.4-.2-3.6v-.1c-2.8-41-10.6-81.9-23.5-121.6-9.8-30-22.1-58.4-36.6-85.2-11.5-21.3-24.5-41.6-38.7-60.7-26.2-35.2-56.7-66.5-90.4-93.4-.7-.6-1.4-1.1-2.1-1.6-5.7-4.5-11.5-8.9-17.4-13.1 8.9 5 19.6 11.1 31.6 18.3 80.8 48.1 221 142.2 293.2 253.1 3.7 5.5 7.1 11.1 10.2 16.6z" fill="url(#SVGID_5_)"/><linearGradient id="SVGID_6_" gradientUnits="userSpaceOnUse" x1="1599.41" y1="848.471" x2="1292.922" y2="134.829" gradientTransform="rotate(-18.066 883.087 969.815)"><stop offset="0" stop-color="#0792cf"/><stop offset="1" stop-color="#0792cf"/></linearGradient><path d="M1596 477.6c8.3 25.3 14.8 50.7 19.9 76.2-78-134.7-262.8-247.5-334.9-287.9-20.9-15.1-43-28.7-66-40.4-.6-.3-1.3-.6-1.9-.9-4.9-2.5-9.7-4.9-14.7-7.2-4-1.9-8.1-3.7-12.2-5.5-1-.4-2-.9-3-1.4-10.7-4.6-21.5-8.8-32.5-12.6-32.1-11.3-65.5-19.3-99.6-23.8h-.1c-2.2-.3-4.2-.6-6.4-.8h-.2c-56.5-6.8-114.9-4.2-172.9 9.1-8.2 2-12.7 3.1-12.7 3.1 84.7-29.6 208.8-63.3 389.3-95.8 18.3 8.2 36.2 17.3 53.6 27.2 1.5.8 2.9 1.6 4.3 2.4 13.3 7.6 26.3 15.8 39 24.4 46.8 31.6 89.6 69.5 127 112.9h.1c.7.8 1.4 1.7 2.2 2.5l6.3 7.5c.4.5.9 1.1 1.3 1.6s.8.9 1.1 1.4l2.6 3.3c1.3 1.6 2.5 3.2 3.8 4.8 2 2.5 4 5 5.9 7.6.8 1 1.6 2.1 2.4 3.1.3.4.6.7.8 1.1.6.7 1.1 1.5 1.7 2.3 2.9 3.9 5.7 7.7 8.5 11.7.6.7 1.1 1.5 1.6 2.2.5.7 1.1 1.5 1.6 2.2.5.7.9 1.4 1.4 2.1.7 1 1.4 1.9 2 3 .9 1.2 1.7 2.5 2.6 3.8.2.4.5.8.8 1.2 2.7 4.2 5.4 8.5 8.1 12.7 1.7 2.7 3.5 5.5 5.3 8.2.7 1.2 1.5 2.4 2.2 3.7 1.2 2 2.4 4 3.5 6 1.5 2.4 2.9 4.9 4.4 7.4 2.3 4.1 4.7 8.2 6.9 12.4 1.2 2.1 2.3 4.3 3.4 6.4.8 1.4 1.5 2.9 2.2 4.3.4.7.8 1.4 1.1 2.1.7 1.2 1.3 2.5 1.9 3.7.4.9.9 1.7 1.3 2.6v.1c.1.1.1.2.2.3 1.1 2.1 2.1 4.3 3.2 6.4 1 2 2 4.1 2.9 6.1 0 .1.1.3.2.4 0 .1.2.3.2.5.6 1.2 1.2 2.5 1.8 3.7.4.8.8 1.7 1.2 2.5.3.7.6 1.3.9 2 .7 1.6 1.5 3.2 2.2 4.7.5 1.2 1 2.3 1.5 3.5l1.5 3.3c.9 2.1 1.8 4.1 2.6 6.2 3 7.1 5.8 14.3 8.6 21.5.8 2.2 1.7 4.5 2.6 6.7 2.3 7.3 4.9 14.7 7.4 22.2z" fill="url(#SVGID_6_)"/><linearGradient id="SVGID_7_" gradientUnits="userSpaceOnUse" x1="1369.819" y1="210.968" x2="847.768" y2="290.753" gradientTransform="rotate(-18.066 883.087 969.815)"><stop offset=".309" stop-color="#9cd538"/><stop offset="1" stop-color="#9cd538"/></linearGradient><path d="M1247.7 89.6c-180.5 32.5-304.5 66.2-389.3 95.8-10.7 2.7-21.4 5.8-32.1 9.3-8.1 2.6-16 5.4-23.9 8.5-128.7 49.1-226.8 146.2-280.4 264a511.94 511.94 0 00-39.1 127.9c-1.4 8.6-2.6 17.2-3.6 25.9-18.4-199.3 29.5-339.5 78.6-427.1 8.7-7.6 17.5-15 26.6-22.2v-.1c19.5-15.4 40-29.8 61.5-43 35.5-21.8 73.6-40.4 114-55.3 8.9-3.3 17.9-6.4 27.1-9.4 157.9-50.5 320.7-37.2 460.6 25.7z" fill="url(#SVGID_7_)"/><linearGradient id="SVGID_8_" gradientUnits="userSpaceOnUse" x1="863.891" y1="954.18" x2="557.854" y2="241.588" gradientTransform="rotate(-18.066 883.087 969.815)"><stop offset="0" stop-color="#fbd538"/><stop offset="1" stop-color="#fbd538"/></linearGradient><path d="M507.2 847.2l.1.3c1.7 5.1 3.4 10.1 5.2 15.1.4 1 .8 2 1.2 3.1 1 2.8 2 5.6 3.1 8.3.5 1.4 1.1 2.7 1.6 4.1 1 2.5 2 5 3 7.4.6 1.4 1.2 2.9 1.8 4.3 1 2.4 2.1 4.8 3.1 7.2.6 1.3 1.3 2.7 1.8 4 1.7 3.6 3.4 7.2 5.1 10.7 1 2 2 3.9 3.1 5.9 1.1 2 2.1 3.9 3.1 5.9l4.5 7.8 2.1 3.6c19.5 33.2 42.5 63.6 68.2 91 16.4 18.9 35 37.8 55.9 56.1 8.5 7.5 17.4 14.9 26.8 22.1-112.4-70-259.4-181-345.9-305.2 0-.3-.1-.6-.2-.9-.7-3.6-1.3-7.2-1.9-10.9-.5-2.9-1-5.7-1.5-8.6-.7-4-1.2-8-1.8-12-.4-2.4-.7-4.8-1-7.2-.6-4.4-1.1-8.9-1.6-13.3-.2-1.9-.3-3.7-.6-5.5-.5-5-.9-10-1.3-15 0-.4 0-.8-.1-1.2 0-.6-.1-1.2-.1-1.7-.5-6.1-.8-12.3-1.1-18.4 0-1.6-.1-3.2-.2-4.8-.2-5.4-.3-10.8-.3-16.3v-6.2c0-5 0-9.8.2-14.8 0-2.4.1-4.8.2-7.3.2-4.6.4-9.1.6-13.7.2-2.6.3-5.3.5-7.9.3-4.4.7-8.7 1.1-13 .3-2.8.5-5.5.8-8.3l1.5-12.9c.3-2.7.7-5.5 1-8.2.6-4.6 1.4-9.1 2.1-13.7.4-2.4.7-4.8 1.1-7.1 1.2-6.9 2.4-13.8 3.8-20.6 1.8-8.8 3.8-17.5 5.9-26.1.5-2.1 1.1-4.3 1.7-6.5 1.7-6.4 3.3-12.7 5.2-19 1.1-3.8 2.3-7.5 3.5-11.2 1.4-4.6 2.8-9.2 4.3-13.7 1.7-4.9 3.4-9.7 5.2-14.5 1-2.8 2-5.8 3-8.6.2-.5.4-.9.6-1.4 1.5-4.1 3.1-8.1 4.8-12.1.9-2 1.7-4.1 2.6-6.2 1.1-2.7 2.1-5.3 3.3-7.9 2.3-5.3 4.8-10.6 7.2-15.9 1.5-3.2 2.9-6.5 4.5-9.7 1.9-3.9 3.9-7.7 5.8-11.5 6.5-12.7 13.2-25.1 20.4-37.4 0-.1 0-.1.1-.1 6.9-11.6 14.3-23.1 21.9-34.3 1.2-1.7 2.3-3.4 3.6-5.1 7.5-10.8 15.4-21.3 23.5-31.6 2.1-2.8 4.3-5.5 6.6-8.2 1.1-1.4 2.3-2.8 3.5-4.1 5.2-6.3 10.4-12.4 15.8-18.3 12.2-13.5 25-26.6 38.4-39.1 4.6-4.4 9.4-8.7 14.2-12.9-49.1 87.7-97.1 227.8-78.6 427.1-3.1 27.3-4 55-2.5 82.9 0 .5 0 .9.1 1.5.1 1.5.2 3 .3 4.4.3 5 .7 10 1.1 14.9.9 5.3 1.8 10.5 2.7 15.7.4 1.9.7 3.9 1 5.8.7 3.6 1.4 7.1 2.1 10.7.4 1.9.7 3.8 1.1 5.7 1 4.7 2 9.4 3 14.2.4 2.2.9 4.3 1.4 6.5.7 3.1 1.5 6.1 2.2 9.1.5 2.2 1 4.3 1.5 6.5 1.2 4.6 2.4 9.2 3.6 13.9.4 1.5.8 3.1 1.3 4.7 1 3.6 2 7.1 3 10.6.5 1.7 1 3.4 1.5 5 1.7 4.6 3.1 9.3 4.6 14z" fill="url(#SVGID_8_)"/><linearGradient id="SVGID_9_" gradientUnits="userSpaceOnUse" x1="793.532" y1="1317.73" x2="492.095" y2="615.849" gradientTransform="rotate(-18.066 883.087 969.815)"><stop offset="0" stop-color="#fe1f27"/><stop offset=".717" stop-color="#fe1f27"/></linearGradient><path d="M1023 1225.4c-22.8 10.7-44.5 19.9-64.3 27.8-26.6 10.6-51.5 19.4-73.9 26.7-17.4 5.7-33.3 10.4-47.1 14.3-7.2 2-13.9 3.8-19.9 5.4-.9-.2-1.8-.5-2.7-.7-.5-.1-.9-.2-1.3-.4-1.2-.3-2.4-.7-3.6-1-8.4-2.3-16.7-4.8-24.9-7.5-37.9-12.4-74.5-28.1-109.4-47.1-98.7-53.7-183.6-133.2-243.6-232.9-24.8-41.1-45.3-85.5-60.8-133-2.2-6.6-4.2-13.2-6.1-19.9-.7-2.3-1.3-4.7-2-7-1.2-4.3-2.3-8.5-3.5-12.8-.7-2.9-1.4-5.9-2.1-8.8-.9-3.7-1.8-7.3-2.6-11l-2.1-9.9c-.6-3-1.2-6-1.8-8.9C437.7 923 584.8 1034 697.1 1104c2 1.5 4 3.1 6.1 4.6 42.7 32.1 93.6 61 154.1 82.3 12.5 4.5 25.4 8.5 38.6 12.2 14.8 4.1 30 7.8 45.7 10.9 25.7 5.3 52.8 9.1 81.4 11.4z" fill="url(#SVGID_9_)"/><linearGradient id="SVGID_10_" gradientUnits="userSpaceOnUse" x1="430.491" y1="814.245" x2="664.697" y2="814.245" gradientTransform="rotate(-18.066 883.087 969.815)"><stop offset="0" stop-color="#fbd538"/><stop offset="1" stop-color="#fbd538"/></linearGradient><path d="M697.1 1104c-112.4-70-259.4-181-345.9-305.2 0-.3-.1-.6-.2-.9-.7-3.6-1.3-7.2-1.9-10.9-.5-2.9-1-5.7-1.5-8.6-.7-4-1.2-8-1.8-12-.4-2.4-.7-4.8-1-7.2-.6-4.4-4.2-16.9-1.6-13.3 133.7 190.9 169.9 220.6 327.1 335.9 8.6 7.6 17.5 15 26.8 22.2z" fill="url(#SVGID_10_)"/><linearGradient id="SVGID_11_" gradientUnits="userSpaceOnUse" x1="607.387" y1="304.831" x2="918.562" y2="304.831" gradientTransform="rotate(-18.066 883.087 969.815)"><stop offset="0" stop-color="#33a668"/><stop offset=".164" stop-color="#3caa64"/><stop offset=".435" stop-color="#55b558"/><stop offset=".778" stop-color="#7ec846"/><stop offset="1" stop-color="#9cd538"/></linearGradient><path d="M646 128.7C612.8 154 485.3 273.4 479.3 621.1c-18.4-199.3 29.5-339.5 78.6-427.1 8.7-7.6 17.5-15 26.6-22.2v-.1c19.6-15.5 40-29.8 61.5-43z" opacity=".5" fill="url(#SVGID_11_)"/><linearGradient id="SVGID_12_" gradientUnits="userSpaceOnUse" x1="1102.856" y1="252.334" x2="1545.172" y2="252.334" gradientTransform="rotate(-18.066 883.087 969.815)"><stop offset="0" stop-color="#0792cf"/><stop offset="1" stop-color="#0792cf"/></linearGradient><path d="M1301.3 116.8c-118.5-6.7-370.7 51.4-430.1 65.6-8.2 2-12.7 3.1-12.7 3.1 84.7-29.6 208.8-63.3 389.3-95.8 18.2 8.1 36.1 17.2 53.5 27.1z" opacity=".5" fill="url(#SVGID_12_)"/><linearGradient id="SVGID_13_" gradientUnits="userSpaceOnUse" x1="1479.603" y1="662.321" x2="1708.743" y2="662.321" gradientTransform="rotate(-18.066 883.087 969.815)"><stop offset="0" stop-color="#9600aa"/><stop offset="1" stop-color="#2995cf"/></linearGradient><path d="M1615.8 553.8c6.4 33 10.3 65.9 11.5 98.7 0 .6.1 1.2.1 1.8-68.7-183.2-253.4-323.7-329.1-375.3-5.7-4.5-11.5-8.9-17.4-13.1 8.9 5 19.6 11.1 31.6 18.3 80.8 48.1 221 142.2 293.2 253.1 3.6 5.4 7 11 10.1 16.5z" opacity=".5" fill="url(#SVGID_13_)"/><linearGradient id="SVGID_14_" gradientUnits="userSpaceOnUse" x1="1155.051" y1="1229.772" x2="1425.943" y2="1229.772" gradientTransform="rotate(-18.066 883.087 969.815)"><stop offset="0" stop-color="#a9004a"/><stop offset="1" stop-color="#6a007c"/></linearGradient><path d="M1434.6 910.2c-1.1 12.1-10 185.8-83.9 298-1.2 1.8-2.5 3.7-3.7 5.5-10.3 8.2-20.7 16.2-31.3 23.9 0 .1 0 .1-.1.1-6.2 4.5-12.4 9-18.6 13.4 0 0-.1 0-.1.1-9.8 6.8-19.6 13.4-29.5 19.9 125.8-136.2 164.8-347.4 167.2-360.9z" fill="url(#SVGID_14_)"/><path d="M905.7 519.3l-70.1 374.1c-2.1 10.9 8.9 19.7 19.1 15.2l150.8-66.2c8-3.5 17.3 1.2 19.1 9.8l38.4 186c3 14.6 23.9 14.7 27 .1l89.2-414.5c2.6-12.1-10.8-21.2-21.1-14.4l-142.5 94.7c-7.7 5.1-22.2 15.1-24.9 6.2l-58.3-192.4c-4.2-13.8-24-12.8-26.7 1.4z" fill="#dbb309"/><linearGradient id="SVGID_15_" gradientUnits="userSpaceOnUse" x1="844.317" y1="782.894" x2="1237.626" y2="782.894" gradientTransform="rotate(-11.678 881.459 960.637)"><stop offset="0" stop-color="#fbd538"/><stop offset="1" stop-color="#fbd538"/></linearGradient><path d="M901.7 490.1l-74.1 387.7c-2.1 10.9 8.9 19.7 19.1 15.2l150.8-66.2c8-3.5 17.3 1.2 19.1 9.8l38.4 186c3 14.6 23.9 14.7 27 .1l89.2-414.5c2.6-12.1-10.8-21.2-21.1-14.4l-142.5 94.7c-7.7 5.1-18.2 1.4-20.8-7.5l-58.3-192.4c-4.2-13.7-24.1-12.6-26.8 1.5z" fill="url(#SVGID_15_)"/><radialGradient id="SVGID_16_" cx="934.522" cy="2268.38" r="316.979" gradientTransform="matrix(2.9568 0 0 .4888 -1779.448 666.33)" gradientUnits="userSpaceOnUse"><stop offset=".005"/><stop offset="1" stop-color="#fff" stop-opacity="0"/></radialGradient><path d="M1921 1775.1c0 85.6-419.6 154.9-937.2 154.9s-937.2-69.4-937.2-154.9c0-85.6 419.6-154.9 937.2-154.9s937.2 69.3 937.2 154.9z" opacity=".26" fill="url(#SVGID_16_)"/></svg>